<svg xmlns="http://www.w3.org/2000/svg" viewBox="0 0 441.06 442.31">
  <defs>
    <linearGradient id="g" x1="0" y1="221.15" x2="441.06" y2="221.15" gradientUnits="userSpaceOnUse">
      <stop offset="0.5" stop-color="#00959c"/>
      <stop offset="0.5" stop-color="#e6b222"/>
    </linearGradient>
  </defs>
  <path fill="url(#g)" d="M427.64,1.69l-202.38,139.41c-.32.25-.66.46-1,.66-.1.06-.2.11-.3.16-.32.16-.64.32-.97.43-.02,0-.03,0-.05.02-.37.13-.75.22-1.13.29-.03,0-.06.01-.1.02-.39.06-.79.1-1.18.1-1.65,0-3.3-.56-4.74-1.67L13.42,1.69C7.64-2.79,0,2.16,0,10.37v421.58c0,5.72,3.89,10.35,8.68,10.35h168.33c5.21,0,9.82-3.37,11.4-8.33.98-3.06,2.13-6.89,3.34-11.35.39-1.44.79-2.95,1.18-4.52.2-.78.4-1.58.6-2.4.4-1.63.8-3.32,1.19-5.07.39-1.75.78-3.55,1.16-5.4.76-3.71,1.49-7.62,2.15-11.7.17-1.02.33-2.05.48-3.09.78-5.21,1.45-10.67,1.94-16.32.1-1.13.19-2.27.27-3.41,2.09-28.61-.6-61.56-15.95-90.46-2.45-4.62-5.23-9.14-8.37-13.53,0,0,27.23,16.74,44.08,54.11,16.85-37.37,44.08-54.11,44.08-54.11-41.71,58.29-20.37,141.01-11.99,167.25,1.58,4.96,6.19,8.32,11.4,8.32h168.37c4.8,0,8.68-4.64,8.68-10.35V10.37c0-8.22-7.64-13.16-13.42-8.68Z"/>
</svg>
